<?xml version="1.0" encoding="UTF-8"?>
<!DOCTYPE svg PUBLIC "-//W3C//DTD SVG 1.1//EN"
    "http://www.w3.org/Graphics/SVG/1.1/DTD/svg11.dtd"><svg xmlns="http://www.w3.org/2000/svg" height="200.0000" stroke-opacity="1" viewBox="0.0 0.0 200.0 200.0" font-size="1" width="200.0000" xmlns:xlink="http://www.w3.org/1999/xlink" stroke="rgb(0,0,0)" version="1.1"><defs></defs><defs><linearGradient x2="0.0000" y1="0.5000" gradientUnits="userSpaceOnUse" spreadMethod="pad" gradientTransform="matrix(40.0000,-0.0000,0.0000,-40.0000,100.0000,120.6600)" id="gradient0" y2="-0.5000" x1="0.0000"><stop stop-opacity="1.0000" offset="0.0000" stop-color="rgb(0,0,255)"/><stop stop-opacity="1.0000" offset="1.0000" stop-color="rgb(255,255,255)"/></linearGradient></defs><g stroke-linejoin="miter" stroke-opacity="1.0" fill-opacity="1" stroke="rgb(0,0,0)" stroke-width="0.0" fill="url(#gradient0)" stroke-linecap="butt" stroke-miterlimit="10.0"><path d="M 200.0000,140.6600 l -0.0000,-40.0000 h -200.0000 l -0.0000,40.0000 Z"/></g><g stroke-linejoin="miter" stroke-opacity="1.0" fill-opacity="0.0" stroke="rgb(128,0,128)" stroke-width="0.5" fill="rgb(0,0,0)" stroke-dashoffset="0.0" stroke-linecap="butt" stroke-miterlimit="10.0" stroke-dasharray="3.8259116560631656,3.8259116560631656"><path d="M 100.0000,100.6600 l 40.0000,20.0000 "/></g><g stroke-linejoin="miter" stroke-opacity="1.0" fill-opacity="0.0" stroke="rgb(128,0,128)" stroke-width="0.5" fill="rgb(0,0,0)" stroke-linecap="butt" stroke-miterlimit="10.0"><path d="M 100.0000,100.6600 l 40.0000,-20.0000 "/></g><g stroke-linejoin="miter" stroke-opacity="1.0" fill-opacity="0.0" stroke="rgb(128,0,128)" stroke-width="0.5" fill="rgb(0,0,0)" stroke-linecap="butt" stroke-miterlimit="10.0"><path d="M 60.0000,60.6600 l 40.0000,40.0000 "/></g><g stroke-linejoin="miter" stroke-opacity="1.0" fill-opacity="0.0" stroke="rgb(0,0,0)" stroke-width="2.0" fill="rgb(0,0,0)" stroke-dashoffset="0.0" stroke-linecap="butt" stroke-miterlimit="10.0" stroke-dasharray="3.8259116560631656,3.8259116560631656"><path d="M 113.3333,100.6600 l 26.6667,20.0000 "/></g><g stroke-linejoin="miter" stroke-opacity="1.0" fill-opacity="0.0" stroke="rgb(0,0,0)" stroke-width="2.0" fill="rgb(0,0,0)" stroke-linecap="butt" stroke-miterlimit="10.0"><path d="M 113.3333,100.6600 l 26.6667,-20.0000 "/></g><g stroke-linejoin="miter" stroke-opacity="1.0" fill-opacity="0.0" stroke="rgb(0,0,0)" stroke-width="2.0" fill="rgb(0,0,0)" stroke-linecap="butt" stroke-miterlimit="10.0"><path d="M 60.0000,60.6600 l 53.3333,40.0000 "/></g><g stroke-linejoin="miter" stroke-opacity="1.0" fill-opacity="1.0" stroke="rgb(0,0,0)" stroke-width="0.5101215541417554" fill="rgb(255,0,0)" stroke-linecap="butt" stroke-miterlimit="10.0"><path d="M 101.3200,100.6600 c 0.0000,-0.7290 -0.5910,-1.3200 -1.3200 -1.3200c -0.7290,-0.0000 -1.3200,0.5910 -1.3200 1.3200c -0.0000,0.7290 0.5910,1.3200 1.3200 1.3200c 0.7290,0.0000 1.3200,-0.5910 1.3200 -1.3200Z"/></g><g stroke-linejoin="miter" stroke-opacity="1.0" fill-opacity="1.0" stroke="rgb(0,0,0)" stroke-width="0.5101215541417554" fill="rgb(255,0,0)" stroke-linecap="butt" stroke-miterlimit="10.0"><path d="M 114.6533,100.6600 c 0.0000,-0.7290 -0.5910,-1.3200 -1.3200 -1.3200c -0.7290,-0.0000 -1.3200,0.5910 -1.3200 1.3200c -0.0000,0.7290 0.5910,1.3200 1.3200 1.3200c 0.7290,0.0000 1.3200,-0.5910 1.3200 -1.3200Z"/></g><g stroke-linejoin="miter" stroke-opacity="1.0" fill-opacity="1.0" stroke="rgb(0,0,0)" stroke-width="0.5101215541417554" fill="rgb(255,0,0)" stroke-linecap="butt" stroke-miterlimit="10.0"><path d="M 141.3200,120.6600 c 0.0000,-0.7290 -0.5910,-1.3200 -1.3200 -1.3200c -0.7290,-0.0000 -1.3200,0.5910 -1.3200 1.3200c -0.0000,0.7290 0.5910,1.3200 1.3200 1.3200c 0.7290,0.0000 1.3200,-0.5910 1.3200 -1.3200Z"/></g><g stroke-linejoin="miter" stroke-opacity="1.0" fill-opacity="1.0" stroke="rgb(0,0,0)" stroke-width="0.5101215541417554" fill="rgb(255,0,0)" stroke-linecap="butt" stroke-miterlimit="10.0"><path d="M 141.3200,80.6600 c 0.0000,-0.7290 -0.5910,-1.3200 -1.3200 -1.3200c -0.7290,-0.0000 -1.3200,0.5910 -1.3200 1.3200c -0.0000,0.7290 0.5910,1.3200 1.3200 1.3200c 0.7290,0.0000 1.3200,-0.5910 1.3200 -1.3200Z"/></g><g stroke-linejoin="miter" stroke-opacity="1.0" fill-opacity="1.0" stroke="rgb(0,0,0)" stroke-width="0.5101215541417554" fill="rgb(255,0,0)" stroke-linecap="butt" stroke-miterlimit="10.0"><path d="M 61.3200,60.6600 c 0.0000,-0.7290 -0.5910,-1.3200 -1.3200 -1.3200c -0.7290,-0.0000 -1.3200,0.5910 -1.3200 1.3200c -0.0000,0.7290 0.5910,1.3200 1.3200 1.3200c 0.7290,0.0000 1.3200,-0.5910 1.3200 -1.3200Z"/></g></svg>